:SAMPLES-PER-SECOND 30
:FULLY-SPECIFIED
:DEGREES
822
root  -11.9956 34.2643 -6.21998 -172.108 60.4187 -176.623
RightUpLeg  -1.7536 -1.68673 2.57492
RightLeg  13.4644 1.79195 0.309281
RightFoot  -5.06725 -0.0283624 -0.109502
RightToes  -15.0092 -0.055419 -0.135535
Spine  -1.82873 1.53001 0.615816
Spine1  -3.65076 2.93151 1.24216
HEad  -64.5924 6.09906 3.82478
LeftShoulder1  -1.94126e-019 -3.10601e-018 -2.51263e-017
LeftArm  -66.7901 15.4083 -23.0001
LeftForeArm  167.58 -65.4384 -158.156
LeftHand  -0.751266 1.26474 21.0601
RightShoulder  -4.96962e-017 0 -2.36833e-017
RightArm  -83.559 -4.71537 8.9614
RightForeArm  -175.104 72.6952 151.457
RightHand  0.177855 -6.03342 -31.2258
LeftUpLeg  -21.0601 5.00412 2.87179
LeftLeg  4.68923 13.4088 0.232997
LeftFoot  17.4186 -0.606468 4.11901
LeftToes  -29.4567 1.87998e-006 4.79886e-008
823
root  -11.3386 34.1456 -7.20835 -174.584 59.9614 -179.079
RightUpLeg  -1.33174 -3.10172 0.33126
RightLeg  16.8748 2.2871 0.535293
RightFoot  -6.96462 -0.0454963 -0.219366
RightToes  -17.4373 -0.067638 -0.155904
Spine  -1.91641 1.42705 -0.0152667
Spine1  -3.8374 2.70106 0.218845
HEad  -65.2791 5.48115 4.04137
LeftShoulder1  -1.94126e-019 -3.10601e-018 -2.51263e-017
LeftArm  -67.8068 12.3052 -20.5063
LeftForeArm  169.602 -63.718 -159.915
LeftHand  -0.798938 1.2836 22.4775
RightShoulder  -4.96962e-017 0 -2.36833e-017
RightArm  -86.9112 -2.28569 7.60506
RightForeArm  -169.999 69.8109 156.248
RightHand  0.27728 -6.32503 -33.1669
LeftUpLeg  -20.4677 3.25712 1.05539
LeftLeg  6.9666 12.5844 0.715465
LeftFoot  18.2985 -0.627474 4.05608
LeftToes  -20.0763 1.87998e-006 4.79886e-008
824
root  -10.7479 34.0788 -8.24875 -177.173 59.313 178.342
RightUpLeg  -1.34888 -4.69789 -2.31411
RightLeg  21.0964 3.14642 0.983638
RightFoot  -7.37753 -0.056403 -0.351767
RightToes  -23.2261 -0.100163 -0.202241
Spine  -1.95527 1.31776 -0.600881
Spine1  -3.90853 2.41133 -0.854707
HEad  -66.0632 4.71502 4.03041
LeftShoulder1  -1.94126e-019 -3.10601e-018 -2.51263e-017
LeftArm  -69.0887 9.06711 -18.8057
LeftForeArm  171.461 -62.2301 -161.288
LeftHand  -0.867042 1.12726 23.4872
RightShoulder  -4.96962e-017 0 -2.36833e-017
RightArm  -90.3218 -0.282909 6.84475
RightForeArm  -165.985 66.6878 160.017
RightHand  0.501539 -6.95151 -35.6782
LeftUpLeg  -20.652 1.36715 -1.06304
LeftLeg  11.0688 14.33 1.83638
LeftFoot  15.4381 -0.515966 3.96681
LeftToes  -14.4554 1.87998e-006 4.79886e-008
825
root  -10.1935 34.093 -9.25863 -179.004 58.9285 176.42
RightUpLeg  -2.40363 -5.99373 -4.67161
RightLeg  26.5703 3.65878 1.5367
RightFoot  -5.83823 -0.0439445 -0.34214
RightToes  -32.992 -0.165058 -0.272214
Spine  -2.02454 1.34485 -1.03817
Spine1  -4.03687 2.38922 -1.65848
HEad  -66.7092 3.70577 3.86303
LeftShoulder1  -1.94126e-019 -3.10601e-018 -2.51263e-017
LeftArm  -69.9748 5.81926 -17.8844
LeftForeArm  173.336 -60.6698 -162.583
LeftHand  -0.920265 1.11038 24.8015
RightShoulder  -4.96962e-017 0 -2.36833e-017
RightArm  -93.2664 1.44583 6.89618
RightForeArm  -163.81 63.2642 163.027
RightHand  0.720458 -7.48127 -38.0324
LeftUpLeg  -20.5869 -0.791871 -2.75333
LeftLeg  14.6692 16.0781 3.07582
LeftFoot  12.1966 -0.366651 3.59236
LeftToes  -10.0635 1.87998e-006 4.79886e-008
826
root  -9.64984 34.182 -10.1999 -179.727 59.0553 175.586
RightUpLeg  -4.49145 -7.7645 -6.48234
RightLeg  32.8661 4.14802 2.30044
RightFoot  -1.6524 -0.00902431 -0.108269
RightToes  -46.4643 -0.272071 -0.348651
Spine  -2.14008 1.49894 -1.19843
Spine1  -4.26728 2.65698 -1.95833
HEad  -67.2076 3.05158 3.52052
LeftShoulder1  -1.94126e-019 -3.10601e-018 -2.51263e-017
LeftArm  -70.4009 2.83817 -17.1124
LeftForeArm  174.113 -59.0193 -163.718
LeftHand  -0.909544 1.33131 25.8154
RightShoulder  -4.96962e-017 0 -2.36833e-017
RightArm  -95.3334 3.92189 7.40345
RightForeArm  -163.328 60.0201 165.188
RightHand  1.03778 -8.23277 -40.1174
LeftUpLeg  -19.4507 0.274171 -4.20877
LeftLeg  15.5843 15.2467 3.17046
LeftFoot  9.68147 -0.217001 2.72348
LeftToes  -6.5058 1.87998e-006 4.79886e-008
827
root  -9.14292 34.2806 -11.034 -179.585 59.3922 175.717
RightUpLeg  -6.98381 -9.30924 -7.51501
RightLeg  38.8643 3.84223 2.68267
RightFoot  3.8237 0.00665771 0.312904
RightToes  -55.47 -0.352294 -0.384871
Spine  -2.22666 1.57445 -1.0915
Spine1  -4.45728 2.83263 -1.75929
HEad  -67.6335 3.16063 3.14534
LeftShoulder1  -1.94126e-019 -3.10601e-018 -2.51263e-017
LeftArm  -70.341 -0.0988185 -15.9242
LeftForeArm  174.427 -58.0138 -164.345
LeftHand  -0.916403 1.28541 25.7226
RightShoulder  -4.96962e-017 0 -2.36833e-017
RightArm  -96.158 8.06687 8.15023
RightForeArm  -162.776 57.4369 166.654
RightHand  1.16618 -8.52239 -40.8436
LeftUpLeg  -18.03 1.93149 -5.02988
LeftLeg  15.4455 14.0962 2.90136
LeftFoot  7.75945 -0.126736 2.03017
LeftToes  -3.90274 1.87998e-006 4.79886e-008
